<svg xmlns="http://www.w3.org/2000/svg" width="105px" height="100px">
  <defs>
    <filter id="warp">
      <feTurbulence type="fractalNoise" baseFrequency="0.015" numOctaves="1" result="warp">
        <animate attributeName="baseFrequency" attributeType="XML" from="0" to="5" begin="0s" dur="600s" repeatCount="indefinite" />
      </feTurbulence>
      <feDisplacementMap xChannelSelector="R" yChannelSelector="G" scale="30" in="SourceGraphic" in2="warp" />
    </filter>
  </defs>
  <path filter="url(#warp)"
     d="m 6,90 0,-25 10,0 0,-8 9,0 0,-5 8,0 0,5 2,0 0,33 3,0 0,-13 2,0 0,-7 2,0 0,-32 1,0 0,-7 1,0 0,-6 2,0 0,-1 1,0 0,-12 1,0 0,-12 0,12 1,0 0,12 1,0 0,1 2,0 0,6 1,0 0,7 1,0 0,32 2,0 0,7 2,0 0,13 4,0 0,-32 5,0 0,-5 6,0 0,5 3,0 0,32 5,0 0,-42 3,0 0,-9 7,0 0,-2 5,0 0,2 2,0 0,51"
     style="fill: none; stroke: #000; stroke-width: 1.5;" />
</svg>
